<svg version="1.1" id="Layer_1" xmlns="http://www.w3.org/2000/svg" xmlns:xlink="http://www.w3.org/1999/xlink" x="0px" y="0px"
	 width="100%" viewBox="0 0 500 500" enable-background="new 0 0 500 500" xml:space="preserve">
<path fill="#000000" opacity="1.000000" stroke="none" 
	d="
M328.000000,501.000000 
	C218.666687,501.000000 109.833382,501.000000 1.000058,501.000000 
	C1.000039,334.333405 1.000039,167.666794 1.000019,1.000148 
	C167.666565,1.000099 334.333130,1.000099 500.999756,1.000049 
	C500.999847,167.666519 500.999847,334.333038 500.999939,500.999786 
	C443.500000,501.000000 386.000000,501.000000 328.000000,501.000000 
M107.781052,363.002167 
	C119.190910,362.663422 130.625534,362.681702 142.004150,361.892639 
	C155.261353,360.973297 167.995300,357.377533 180.236893,352.273468 
	C189.209244,348.532440 198.233139,346.661621 208.137970,346.814606 
	C240.118881,347.308533 272.113190,347.132507 304.099884,346.890564 
	C310.647797,346.841034 316.475922,348.229401 322.467987,350.720337 
	C349.210999,361.837585 376.919067,366.623077 405.935120,363.074860 
	C422.481689,361.051483 437.901428,356.005951 452.542755,348.195038 
	C454.703400,347.042328 455.408997,346.195984 454.420776,343.707031 
	C453.496887,341.380005 453.087250,338.713196 453.059113,336.189148 
	C452.921844,323.877899 454.160004,311.423798 452.703796,299.285095 
	C450.599365,281.743286 446.567230,264.429443 439.954620,247.893326 
	C431.317535,226.294586 420.115326,206.443893 402.923035,190.194687 
	C393.934814,181.699539 384.262360,174.549805 373.038635,169.579071 
	C358.390228,163.091614 343.080933,161.290741 327.231079,163.897781 
	C324.701874,164.313782 321.299316,164.985977 319.567963,163.755859 
	C310.449738,157.277420 301.711151,150.260864 292.925415,143.323868 
	C291.999420,142.592728 291.113495,141.176682 291.078094,140.051041 
	C290.768463,130.210846 287.938202,121.614449 281.516510,113.752464 
	C272.376190,102.562149 254.855331,96.372711 241.041061,100.399376 
	C222.608932,105.772102 211.078674,120.937454 210.930222,139.660797 
	C210.918930,141.084412 210.325638,143.040039 209.297028,143.834595 
	C200.588074,150.561905 191.744110,157.116684 182.849838,163.598618 
	C181.874329,164.309555 180.324203,164.497726 179.045181,164.484467 
	C168.614166,164.376282 158.026459,162.922607 147.785187,164.225891 
	C122.515327,167.441696 104.095573,182.890259 88.387718,201.487396 
	C78.427681,213.279465 71.003288,226.866913 64.846825,241.200211 
	C55.376022,263.249908 50.268272,286.295715 48.185471,309.982208 
	C47.125019,322.042084 47.999817,334.272125 47.999817,347.128235 
	C59.646229,350.918365 71.229927,355.082397 83.052132,358.395264 
	C90.802643,360.567139 98.898094,361.508087 107.781052,363.002167 
z"/>
<path fill="#FEFEFE" opacity="1.000000" stroke="none" 
	d="
M107.310059,363.001221 
	C98.898094,361.508087 90.802643,360.567139 83.052132,358.395264 
	C71.229927,355.082397 59.646229,350.918365 47.999817,347.128235 
	C47.999817,334.272125 47.125019,322.042084 48.185471,309.982208 
	C50.268272,286.295715 55.376022,263.249908 64.846825,241.200211 
	C71.003288,226.866913 78.427681,213.279465 88.387718,201.487396 
	C104.095573,182.890259 122.515327,167.441696 147.785187,164.225891 
	C158.026459,162.922607 168.614166,164.376282 179.045181,164.484467 
	C180.324203,164.497726 181.874329,164.309555 182.849838,163.598618 
	C191.744110,157.116684 200.588074,150.561905 209.297028,143.834595 
	C210.325638,143.040039 210.918930,141.084412 210.930222,139.660797 
	C211.078674,120.937454 222.608932,105.772102 241.041061,100.399376 
	C254.855331,96.372711 272.376190,102.562149 281.516510,113.752464 
	C287.938202,121.614449 290.768463,130.210846 291.078094,140.051041 
	C291.113495,141.176682 291.999420,142.592728 292.925415,143.323868 
	C301.711151,150.260864 310.449738,157.277420 319.567963,163.755859 
	C321.299316,164.985977 324.701874,164.313782 327.231079,163.897781 
	C343.080933,161.290741 358.390228,163.091614 373.038635,169.579071 
	C384.262360,174.549805 393.934814,181.699539 402.923035,190.194687 
	C420.115326,206.443893 431.317535,226.294586 439.954620,247.893326 
	C446.567230,264.429443 450.599365,281.743286 452.703796,299.285095 
	C454.160004,311.423798 452.921844,323.877899 453.059113,336.189148 
	C453.087250,338.713196 453.496887,341.380005 454.420776,343.707031 
	C455.408997,346.195984 454.703400,347.042328 452.542755,348.195038 
	C437.901428,356.005951 422.481689,361.051483 405.935120,363.074860 
	C376.919067,366.623077 349.210999,361.837585 322.467987,350.720337 
	C316.475922,348.229401 310.647797,346.841034 304.099884,346.890564 
	C272.113190,347.132507 240.118881,347.308533 208.137970,346.814606 
	C198.233139,346.661621 189.209244,348.532440 180.236893,352.273468 
	C167.995300,357.377533 155.261353,360.973297 142.004150,361.892639 
	C130.625534,362.681702 119.190910,362.663422 107.310059,363.001221 
M445.802490,335.220642 
	C446.139526,335.350159 446.476593,335.479675 446.813599,335.609192 
	C446.568695,335.048187 446.323792,334.487183 446.010803,333.075043 
	C445.005402,327.862122 444.232544,322.591461 442.954071,317.446381 
	C437.627991,296.011536 428.042267,276.582214 413.397095,260.087097 
	C399.107819,243.992767 381.247742,233.712479 359.507935,230.978561 
	C355.380127,230.459457 352.384949,231.383545 350.962646,235.765549 
	C350.027405,238.647110 348.679626,241.407791 347.369965,244.152664 
	C340.050110,259.494141 331.785645,274.283356 321.521149,287.494843 
	C328.085114,288.337799 334.598694,288.886658 340.998108,290.058868 
	C352.563324,292.177246 364.220062,294.074280 375.553741,297.122803 
	C401.730377,304.163788 425.812286,315.396149 445.802490,335.220642 
M112.759331,304.030365 
	C112.349770,304.312439 111.977257,304.694122 111.525299,304.862152 
	C96.026245,310.624603 81.383011,317.928741 68.946701,329.037872 
	C64.697708,332.833435 60.814529,337.038513 55.815632,341.997498 
	C98.662193,341.997498 139.627640,341.666870 180.582748,342.172485 
	C195.409286,342.355499 205.389084,333.112457 217.607285,327.342316 
	C204.518387,318.520691 192.759537,309.675995 183.263214,298.010712 
	C181.212173,295.491211 179.775299,291.137817 174.755768,291.947418 
	C167.221878,293.162506 159.537292,293.563019 152.078079,295.095184 
	C139.178299,297.744873 126.402260,300.996979 112.759331,304.030365 
M80.612175,313.033051 
	C109.228905,295.963562 140.781036,289.237305 173.955093,286.633820 
	C172.547668,284.630951 171.211090,282.869598 170.021652,281.013916 
	C160.957214,266.872040 154.160065,251.651047 149.415985,235.592392 
	C148.182785,231.417984 146.257538,230.460281 142.568405,230.994720 
	C139.995209,231.367493 137.346710,231.430832 134.849121,232.082108 
	C113.394119,237.676666 96.311905,249.482925 82.853035,267.238190 
	C70.851151,283.071411 63.589279,300.891418 58.178852,319.669403 
	C56.983459,323.818237 56.661385,328.218750 56.007904,332.084869 
	C64.082726,325.827637 72.046379,319.656555 80.612175,313.033051 
M399.500000,341.997375 
	C414.208313,341.997375 428.916626,341.997375 444.616821,341.997375 
	C427.224030,324.391510 407.170105,313.295502 384.971649,306.112549 
	C373.389832,302.364929 361.434906,299.650024 349.509766,297.123322 
	C340.483276,295.210815 331.247864,294.253998 322.082642,293.044434 
	C319.135468,292.655487 316.899841,293.240967 314.680176,296.270569 
	C310.740204,301.648163 305.756592,306.309967 300.914886,310.964661 
	C295.772369,315.908539 290.287170,320.496002 284.972992,325.220123 
	C290.647827,328.521210 296.074127,331.979675 301.768646,334.918396 
	C309.976166,339.154053 318.202881,342.488434 328.047974,342.210815 
	C351.515350,341.549164 375.013977,341.997437 399.500000,341.997375 
M167.035751,193.610489 
	C161.977036,203.935394 156.918320,214.260284 151.733002,224.843567 
	C169.556000,225.577271 184.609756,231.678497 198.423218,241.719711 
	C212.189423,251.726593 222.425598,264.745514 230.644470,278.161560 
	C235.580154,263.799835 240.382172,249.369400 245.588791,235.086456 
	C246.559494,232.423569 246.951324,230.493546 245.545532,227.955215 
	C237.378723,213.209076 227.257309,199.940979 214.376663,189.119415 
	C206.030472,182.107422 196.896408,175.890427 186.055832,173.073654 
	C184.736938,172.730957 182.444870,173.067200 181.725891,173.976242 
	C176.813248,180.187653 172.200592,186.636337 167.035751,193.610489 
M275.505066,200.997040 
	C270.068024,208.436249 264.766510,215.980072 259.139069,223.272369 
	C256.140198,227.158463 256.277893,230.605515 257.858215,235.184067 
	C262.761505,249.389832 266.967560,263.836243 271.395935,278.034515 
	C288.843781,249.418930 312.583252,227.752365 349.035736,224.632370 
	C343.975433,208.657715 336.213562,194.487610 326.684753,181.240128 
	C319.303589,170.978531 318.388763,170.813950 306.886108,176.571701 
	C295.017181,182.512772 284.679230,190.414139 275.505066,200.997040 
M338.970154,188.649872 
	C345.303802,200.302170 351.824005,211.872421 354.923035,224.323135 
	C407.302948,230.857758 432.245178,266.130402 447.996948,311.498413 
	C447.141144,304.347076 446.112335,297.172943 444.998718,290.011963 
	C442.445129,273.591949 438.023987,257.707947 431.152435,242.548630 
	C424.815765,228.569412 417.325500,215.375458 407.307556,203.551514 
	C395.731689,189.888840 382.143463,179.358063 365.371857,172.987732 
	C352.291016,168.019272 338.947876,167.780029 325.448364,169.986511 
	C329.999908,176.259750 334.271118,182.146576 338.970154,188.649872 
M175.803543,170.000320 
	C169.772705,169.667755 163.745560,169.216827 157.710220,169.028732 
	C147.098160,168.698013 137.263977,171.980026 127.992294,176.614761 
	C114.738762,183.239975 103.758385,192.713364 94.164284,204.116104 
	C85.548813,214.355759 78.412163,225.494934 73.162262,237.582153 
	C67.893684,249.712341 63.726700,262.413116 60.180763,275.170654 
	C57.270947,285.639526 55.980740,296.558594 53.972626,307.278107 
	C55.528999,307.327911 55.862225,307.180450 55.941357,306.946899 
	C64.193680,282.591003 76.421692,260.899231 96.914330,244.526749 
	C111.714920,232.701874 128.142075,225.365097 146.545074,224.924255 
	C148.596146,219.435501 150.298309,214.089798 152.556091,208.990051 
	C158.773376,194.946915 166.774063,181.966934 175.803543,170.000320 
M223.948517,160.419479 
	C232.103714,170.065506 242.171066,174.348907 255.048233,173.152237 
	C266.722015,172.067383 275.019287,166.004684 280.484863,156.663620 
	C287.097870,145.361435 287.042664,133.384079 280.010071,121.786385 
	C270.016785,105.306038 250.902771,100.844055 235.330688,109.124489 
	C215.703995,119.560921 211.419632,142.134415 223.948517,160.419479 
M249.937302,223.458023 
	C250.992813,222.794266 252.355942,222.361847 253.056061,221.430832 
	C259.773102,212.498749 265.805115,202.979584 273.150482,194.608856 
	C284.027832,182.213074 297.381256,172.890961 314.594513,166.831467 
	C305.974213,160.301224 298.319458,154.502426 290.226898,148.371964 
	C285.067902,165.776184 274.150482,176.616684 257.228973,178.728348 
	C234.540344,181.559677 219.275070,170.678207 211.493439,148.751755 
	C203.475800,154.845596 195.844269,160.645950 187.752380,166.796219 
	C216.567337,178.060516 235.385239,197.888596 249.937302,223.458023 
M223.922913,284.997650 
	C224.753738,284.997650 225.584564,284.997650 226.433411,284.997650 
	C218.186905,258.828247 176.461761,227.889938 154.507507,231.477386 
	C154.782974,232.908890 154.917450,234.380051 155.353378,235.755692 
	C160.666687,252.523010 168.312439,268.151367 178.219254,282.693115 
	C180.417786,285.920227 183.437820,286.244415 186.863586,286.012299 
	C192.595627,285.623871 198.330353,285.188080 204.070938,285.035583 
	C210.386765,284.867767 216.710526,284.997375 223.922913,284.997650 
M280.528748,274.977478 
	C278.373932,278.507812 276.219147,282.038177 273.951080,285.754120 
	C274.845367,285.898682 275.149078,285.983429 275.454956,285.992065 
	C287.508179,286.332764 299.560608,286.740143 311.616333,286.911499 
	C313.187622,286.933838 315.400543,286.199768 316.262909,285.035736 
	C328.609467,268.370239 338.855164,250.497787 346.776123,231.154877 
	C324.392120,232.817307 299.177246,245.892227 280.528748,274.977478 
M216.490677,291.000244 
	C206.335892,291.000244 196.181091,291.000244 184.900635,291.000244 
	C195.187210,302.496429 205.517151,311.740173 216.747528,320.147156 
	C221.569855,323.757141 225.089432,323.162476 228.708405,319.556671 
	C229.929749,318.339783 230.608582,315.967590 230.528397,314.168304 
	C230.274963,308.480408 229.412170,302.821625 229.073486,297.134430 
	C228.959564,295.221344 229.709457,293.256866 230.122223,291.000580 
	C225.439087,291.000580 221.462921,291.000580 216.490677,291.000244 
M392.462524,358.998932 
	C409.114288,357.639923 425.403015,354.818970 441.556915,347.222565 
	C404.162933,347.222565 367.856201,347.222565 330.518799,347.222565 
	C350.716858,355.598663 371.005981,357.908630 392.462524,358.998932 
M244.493423,255.006210 
	C241.557770,265.191681 238.622101,275.377136 235.494385,286.228943 
	C246.456894,286.228943 256.180145,286.228943 266.394012,286.228943 
	C264.310516,277.268036 262.693787,269.068054 260.456116,261.041229 
	C258.219696,253.018906 255.361954,245.169785 252.776581,237.244751 
	C252.378601,237.177994 251.980621,237.111237 251.582642,237.044479 
	C249.375641,242.808517 247.168655,248.572571 244.493423,255.006210 
M81.508575,347.001373 
	C76.861870,347.001373 72.215164,347.001373 66.135223,347.001373 
	C104.714211,361.200317 143.916031,359.907135 176.787811,347.001343 
	C145.097778,347.001343 113.801765,347.001343 81.508575,347.001373 
M296.037170,307.440460 
	C300.857788,302.630768 305.678406,297.821075 311.217926,292.294128 
	C297.131165,292.294128 284.618805,292.294128 272.715576,292.294128 
	C272.715576,297.311829 273.815155,302.365479 272.477264,306.659698 
	C270.004211,314.597351 270.547058,317.593750 277.974884,320.951172 
	C278.714813,321.285614 280.096802,321.202911 280.683563,320.715363 
	C285.702057,316.545532 290.605743,312.237518 296.037170,307.440460 
M283.967407,331.463348 
	C280.605469,328.934631 277.444244,328.962982 274.379089,332.048279 
	C273.607819,332.824615 272.518005,333.302612 271.535980,333.848206 
	C267.084595,336.321442 262.619385,338.769775 257.194519,341.758545 
	C272.888824,341.758545 287.189697,341.758545 301.962982,341.758545 
	C295.830475,338.332123 290.166565,335.167542 283.967407,331.463348 
M226.626862,332.966675 
	C225.219910,332.383698 223.344528,330.908600 222.481552,331.361725 
	C216.619720,334.439423 210.971375,337.923737 204.619339,341.648956 
	C218.176102,341.648956 230.856659,341.648956 244.460266,341.648956 
	C238.182388,338.481323 232.787689,335.759277 226.626862,332.966675 
M250.610229,336.939636 
	C251.072464,336.442993 251.823441,336.011810 251.953125,335.439758 
	C253.612091,328.122681 255.182114,320.785400 256.783173,313.414337 
	C254.776596,312.208527 252.765976,311.000305 250.928131,309.895905 
	C248.692291,311.654633 246.795700,313.146484 244.958832,314.591370 
	C245.357285,315.705902 245.778732,316.579834 245.981766,317.501831 
	C247.361176,323.765564 248.694473,330.039429 250.610229,336.939636 
M257.014069,293.000092 
	C251.490112,293.000092 245.966156,293.000092 239.459854,293.000092 
	C243.906631,296.518219 247.495132,299.357330 252.006485,302.926575 
	C254.857239,299.563812 257.614441,296.311432 260.423676,292.997650 
	C259.537872,292.997650 258.710175,292.997650 257.014069,293.000092 
M236.246460,330.967163 
	C235.360580,328.563660 234.474686,326.160187 233.481262,323.464905 
	C231.511658,324.959290 230.190933,325.961334 228.614670,327.157288 
	C231.139053,328.557098 233.314453,329.763397 236.246460,330.967163 
M268.353333,324.098938 
	C267.588196,325.916534 266.823059,327.734131 265.724976,330.342682 
	C268.922180,328.452087 271.371155,327.003937 275.278900,324.693146 
	C272.202545,324.160614 270.546936,323.873993 268.353333,324.098938 
z"/>
<path fill="#000000" opacity="1.000000" stroke="none" 
	d="
M445.418518,334.774139 
	C425.812286,315.396149 401.730377,304.163788 375.553741,297.122803 
	C364.220062,294.074280 352.563324,292.177246 340.998108,290.058868 
	C334.598694,288.886658 328.085114,288.337799 321.521149,287.494843 
	C331.785645,274.283356 340.050110,259.494141 347.369965,244.152664 
	C348.679626,241.407791 350.027405,238.647110 350.962646,235.765549 
	C352.384949,231.383545 355.380127,230.459457 359.507935,230.978561 
	C381.247742,233.712479 399.107819,243.992767 413.397095,260.087097 
	C428.042267,276.582214 437.627991,296.011536 442.954071,317.446381 
	C444.232544,322.591461 445.005402,327.862122 445.870361,333.705292 
	C445.626129,334.481750 445.522308,334.627930 445.418518,334.774139 
z"/>
<path fill="#000000" opacity="1.000000" stroke="none" 
	d="
M113.166824,304.013367 
	C126.402260,300.996979 139.178299,297.744873 152.078079,295.095184 
	C159.537292,293.563019 167.221878,293.162506 174.755768,291.947418 
	C179.775299,291.137817 181.212173,295.491211 183.263214,298.010712 
	C192.759537,309.675995 204.518387,318.520691 217.607285,327.342316 
	C205.389084,333.112457 195.409286,342.355499 180.582748,342.172485 
	C139.627640,341.666870 98.662193,341.997498 55.815632,341.997498 
	C60.814529,337.038513 64.697708,332.833435 68.946701,329.037872 
	C81.383011,317.928741 96.026245,310.624603 111.525299,304.862152 
	C111.977257,304.694122 112.349770,304.312439 113.166824,304.013367 
z"/>
<path fill="#000000" opacity="1.000000" stroke="none" 
	d="
M80.311096,313.259277 
	C72.046379,319.656555 64.082726,325.827637 56.007904,332.084869 
	C56.661385,328.218750 56.983459,323.818237 58.178852,319.669403 
	C63.589279,300.891418 70.851151,283.071411 82.853035,267.238190 
	C96.311905,249.482925 113.394119,237.676666 134.849121,232.082108 
	C137.346710,231.430832 139.995209,231.367493 142.568405,230.994720 
	C146.257538,230.460281 148.182785,231.417984 149.415985,235.592392 
	C154.160065,251.651047 160.957214,266.872040 170.021652,281.013916 
	C171.211090,282.869598 172.547668,284.630951 173.955093,286.633820 
	C140.781036,289.237305 109.228905,295.963562 80.311096,313.259277 
z"/>
<path fill="#000000" opacity="1.000000" stroke="none" 
	d="
M399.000000,341.997375 
	C375.013977,341.997437 351.515350,341.549164 328.047974,342.210815 
	C318.202881,342.488434 309.976166,339.154053 301.768646,334.918396 
	C296.074127,331.979675 290.647827,328.521210 284.972992,325.220123 
	C290.287170,320.496002 295.772369,315.908539 300.914886,310.964661 
	C305.756592,306.309967 310.740204,301.648163 314.680176,296.270569 
	C316.899841,293.240967 319.135468,292.655487 322.082642,293.044434 
	C331.247864,294.253998 340.483276,295.210815 349.509766,297.123322 
	C361.434906,299.650024 373.389832,302.364929 384.971649,306.112549 
	C407.170105,313.295502 427.224030,324.391510 444.616821,341.997375 
	C428.916626,341.997375 414.208313,341.997375 399.000000,341.997375 
z"/>
<path fill="#000000" opacity="1.000000" stroke="none" 
	d="
M167.263489,193.309509 
	C172.200592,186.636337 176.813248,180.187653 181.725891,173.976242 
	C182.444870,173.067200 184.736938,172.730957 186.055832,173.073654 
	C196.896408,175.890427 206.030472,182.107422 214.376663,189.119415 
	C227.257309,199.940979 237.378723,213.209076 245.545532,227.955215 
	C246.951324,230.493546 246.559494,232.423569 245.588791,235.086456 
	C240.382172,249.369400 235.580154,263.799835 230.644470,278.161560 
	C222.425598,264.745514 212.189423,251.726593 198.423218,241.719711 
	C184.609756,231.678497 169.556000,225.577271 151.733002,224.843567 
	C156.918320,214.260284 161.977036,203.935394 167.263489,193.309509 
z"/>
<path fill="#000000" opacity="1.000000" stroke="none" 
	d="
M275.758423,200.739014 
	C284.679230,190.414139 295.017181,182.512772 306.886108,176.571701 
	C318.388763,170.813950 319.303589,170.978531 326.684753,181.240128 
	C336.213562,194.487610 343.975433,208.657715 349.035736,224.632370 
	C312.583252,227.752365 288.843781,249.418930 271.395935,278.034515 
	C266.967560,263.836243 262.761505,249.389832 257.858215,235.184067 
	C256.277893,230.605515 256.140198,227.158463 259.139069,223.272369 
	C264.766510,215.980072 270.068024,208.436249 275.758423,200.739014 
z"/>
<path fill="#000000" opacity="1.000000" stroke="none" 
	d="
M338.756226,188.341644 
	C334.271118,182.146576 329.999908,176.259750 325.448364,169.986511 
	C338.947876,167.780029 352.291016,168.019272 365.371857,172.987732 
	C382.143463,179.358063 395.731689,189.888840 407.307556,203.551514 
	C417.325500,215.375458 424.815765,228.569412 431.152435,242.548630 
	C438.023987,257.707947 442.445129,273.591949 444.998718,290.011963 
	C446.112335,297.172943 447.141144,304.347076 447.996948,311.498413 
	C432.245178,266.130402 407.302948,230.857758 354.923035,224.323135 
	C351.824005,211.872421 345.303802,200.302170 338.756226,188.341644 
z"/>
<path fill="#000000" opacity="1.000000" stroke="none" 
	d="
M176.184814,170.056335 
	C166.774063,181.966934 158.773376,194.946915 152.556091,208.990051 
	C150.298309,214.089798 148.596146,219.435501 146.545074,224.924255 
	C128.142075,225.365097 111.714920,232.701874 96.914330,244.526749 
	C76.421692,260.899231 64.193680,282.591003 55.941357,306.946899 
	C55.862225,307.180450 55.528999,307.327911 53.972626,307.278107 
	C55.980740,296.558594 57.270947,285.639526 60.180763,275.170654 
	C63.726700,262.413116 67.893684,249.712341 73.162262,237.582153 
	C78.412163,225.494934 85.548813,214.355759 94.164284,204.116104 
	C103.758385,192.713364 114.738762,183.239975 127.992294,176.614761 
	C137.263977,171.980026 147.098160,168.698013 157.710220,169.028732 
	C163.745560,169.216827 169.772705,169.667755 176.184814,170.056335 
z"/>
<path fill="#000000" opacity="1.000000" stroke="none" 
	d="
M223.673370,160.175262 
	C211.419632,142.134415 215.703995,119.560921 235.330688,109.124489 
	C250.902771,100.844055 270.016785,105.306038 280.010071,121.786385 
	C287.042664,133.384079 287.097870,145.361435 280.484863,156.663620 
	C275.019287,166.004684 266.722015,172.067383 255.048233,173.152237 
	C242.171066,174.348907 232.103714,170.065506 223.673370,160.175262 
z"/>
<path fill="#000000" opacity="1.000000" stroke="none" 
	d="
M249.675980,223.196350 
	C235.385239,197.888596 216.567337,178.060516 187.752380,166.796219 
	C195.844269,160.645950 203.475800,154.845596 211.493439,148.751755 
	C219.275070,170.678207 234.540344,181.559677 257.228973,178.728348 
	C274.150482,176.616684 285.067902,165.776184 290.226898,148.371964 
	C298.319458,154.502426 305.974213,160.301224 314.594513,166.831467 
	C297.381256,172.890961 284.027832,182.213074 273.150482,194.608856 
	C265.805115,202.979584 259.773102,212.498749 253.056061,221.430832 
	C252.355942,222.361847 250.992813,222.794266 249.675980,223.196350 
z"/>
<path fill="#000000" opacity="1.000000" stroke="none" 
	d="
M223.476868,284.997528 
	C216.710526,284.997375 210.386765,284.867767 204.070938,285.035583 
	C198.330353,285.188080 192.595627,285.623871 186.863586,286.012299 
	C183.437820,286.244415 180.417786,285.920227 178.219254,282.693115 
	C168.312439,268.151367 160.666687,252.523010 155.353378,235.755692 
	C154.917450,234.380051 154.782974,232.908890 154.507507,231.477386 
	C176.461761,227.889938 218.186905,258.828247 226.433411,284.997650 
	C225.584564,284.997650 224.753738,284.997650 223.476868,284.997528 
z"/>
<path fill="#000000" opacity="1.000000" stroke="none" 
	d="
M280.748840,274.678040 
	C299.177246,245.892227 324.392120,232.817307 346.776123,231.154877 
	C338.855164,250.497787 328.609467,268.370239 316.262909,285.035736 
	C315.400543,286.199768 313.187622,286.933838 311.616333,286.911499 
	C299.560608,286.740143 287.508179,286.332764 275.454956,285.992065 
	C275.149078,285.983429 274.845367,285.898682 273.951080,285.754120 
	C276.219147,282.038177 278.373932,278.507812 280.748840,274.678040 
z"/>
<path fill="#000000" opacity="1.000000" stroke="none" 
	d="
M216.988708,291.000427 
	C221.462921,291.000580 225.439087,291.000580 230.122223,291.000580 
	C229.709457,293.256866 228.959564,295.221344 229.073486,297.134430 
	C229.412170,302.821625 230.274963,308.480408 230.528397,314.168304 
	C230.608582,315.967590 229.929749,318.339783 228.708405,319.556671 
	C225.089432,323.162476 221.569855,323.757141 216.747528,320.147156 
	C205.517151,311.740173 195.187210,302.496429 184.900635,291.000244 
	C196.181091,291.000244 206.335892,291.000244 216.988708,291.000427 
z"/>
<path fill="#000000" opacity="1.000000" stroke="none" 
	d="
M391.996216,358.998871 
	C371.005981,357.908630 350.716858,355.598663 330.518799,347.222565 
	C367.856201,347.222565 404.162933,347.222565 441.556915,347.222565 
	C425.403015,354.818970 409.114288,357.639923 391.996216,358.998871 
z"/>
<path fill="#000000" opacity="1.000000" stroke="none" 
	d="
M244.727539,254.671417 
	C247.168655,248.572571 249.375641,242.808517 251.582642,237.044479 
	C251.980621,237.111237 252.378601,237.177994 252.776581,237.244751 
	C255.361954,245.169785 258.219696,253.018906 260.456116,261.041229 
	C262.693787,269.068054 264.310516,277.268036 266.394012,286.228943 
	C256.180145,286.228943 246.456894,286.228943 235.494385,286.228943 
	C238.622101,275.377136 241.557770,265.191681 244.727539,254.671417 
z"/>
<path fill="#000000" opacity="1.000000" stroke="none" 
	d="
M82.007156,347.001343 
	C113.801765,347.001343 145.097778,347.001343 176.787811,347.001343 
	C143.916031,359.907135 104.714211,361.200317 66.135223,347.001373 
	C72.215164,347.001373 76.861870,347.001373 82.007156,347.001343 
z"/>
<path fill="#000000" opacity="1.000000" stroke="none" 
	d="
M295.790466,307.705627 
	C290.605743,312.237518 285.702057,316.545532 280.683563,320.715363 
	C280.096802,321.202911 278.714813,321.285614 277.974884,320.951172 
	C270.547058,317.593750 270.004211,314.597351 272.477264,306.659698 
	C273.815155,302.365479 272.715576,297.311829 272.715576,292.294128 
	C284.618805,292.294128 297.131165,292.294128 311.217926,292.294128 
	C305.678406,297.821075 300.857788,302.630768 295.790466,307.705627 
z"/>
<path fill="#000000" opacity="1.000000" stroke="none" 
	d="
M284.235016,331.733154 
	C290.166565,335.167542 295.830475,338.332123 301.962982,341.758545 
	C287.189697,341.758545 272.888824,341.758545 257.194519,341.758545 
	C262.619385,338.769775 267.084595,336.321442 271.535980,333.848206 
	C272.518005,333.302612 273.607819,332.824615 274.379089,332.048279 
	C277.444244,328.962982 280.605469,328.934631 284.235016,331.733154 
z"/>
<path fill="#000000" opacity="1.000000" stroke="none" 
	d="
M227.009918,333.001953 
	C232.787689,335.759277 238.182388,338.481323 244.460266,341.648956 
	C230.856659,341.648956 218.176102,341.648956 204.619339,341.648956 
	C210.971375,337.923737 216.619720,334.439423 222.481552,331.361725 
	C223.344528,330.908600 225.219910,332.383698 227.009918,333.001953 
z"/>
<path fill="#000000" opacity="1.000000" stroke="none" 
	d="
M250.326447,336.624817 
	C248.694473,330.039429 247.361176,323.765564 245.981766,317.501831 
	C245.778732,316.579834 245.357285,315.705902 244.958832,314.591370 
	C246.795700,313.146484 248.692291,311.654633 250.928131,309.895905 
	C252.765976,311.000305 254.776596,312.208527 256.783173,313.414337 
	C255.182114,320.785400 253.612091,328.122681 251.953125,335.439758 
	C251.823441,336.011810 251.072464,336.442993 250.326447,336.624817 
z"/>
<path fill="#000000" opacity="1.000000" stroke="none" 
	d="
M257.448303,292.998871 
	C258.710175,292.997650 259.537872,292.997650 260.423676,292.997650 
	C257.614441,296.311432 254.857239,299.563812 252.006485,302.926575 
	C247.495132,299.357330 243.906631,296.518219 239.459854,293.000092 
	C245.966156,293.000092 251.490112,293.000092 257.448303,292.998871 
z"/>
<path fill="#000000" opacity="1.000000" stroke="none" 
	d="
M235.868164,330.968445 
	C233.314453,329.763397 231.139053,328.557098 228.614670,327.157288 
	C230.190933,325.961334 231.511658,324.959290 233.481262,323.464905 
	C234.474686,326.160187 235.360580,328.563660 235.868164,330.968445 
z"/>
<path fill="#000000" opacity="1.000000" stroke="none" 
	d="
M268.622314,323.843170 
	C270.546936,323.873993 272.202545,324.160614 275.278900,324.693146 
	C271.371155,327.003937 268.922180,328.452087 265.724976,330.342682 
	C266.823059,327.734131 267.588196,325.916534 268.622314,323.843170 
z"/>
<path fill="#000000" opacity="1.000000" stroke="none" 
	d="
M445.904419,334.130859 
	C446.323792,334.487183 446.568695,335.048187 446.813599,335.609192 
	C446.476593,335.479675 446.139526,335.350159 445.610504,334.997375 
	C445.522308,334.627930 445.626129,334.481750 445.904419,334.130859 
z"/>
</svg>